
            <svg data-logo="logo" xmlns="http://www.w3.org/2000/svg" viewBox="0 0 61 40">
                <g id="logogram" transform="translate(0, 0)"><path d="M18.7552 5.82192V0H0.399048V40H18.7552V34.1781C14.9949 34.1781 11.3886 32.6842 8.72978 30.0253C6.07088 27.3664 4.57713 23.7603 4.57713 20C4.57713 16.2397 6.07088 12.6334 8.72978 9.97459C11.3886 7.31568 14.9949 5.82192 18.7552 5.82192Z" fill="#000000"/><path d="M18.7552 5.82192V34.1781C22.5155 34.1781 26.1218 32.6843 28.7807 30.0253C31.4396 27.3664 32.9333 23.7603 32.9333 20C32.9333 16.2397 31.4396 12.6334 28.7807 9.97459C26.1218 7.31568 22.5155 5.82192 18.7552 5.82192Z" fill="#000000"/></g>
                <g id="logotype" transform="translate(37, 8.5)"><path fill="#000000" d="M14.15 22.76L14.15 22.76Q11.75 22.76 9.70 21.84Q7.65 20.93 6.39 19.13Q5.14 17.32 5.14 14.66L5.14 14.66Q5.14 14.43 5.16 14.21Q5.18 13.98 5.18 13.83L5.18 13.83L10.23 13.83Q10.23 13.86 10.21 14.07Q10.19 14.28 10.19 14.43L10.19 14.43Q10.19 16.30 11.30 17.44Q12.40 18.58 14.37 18.58L14.37 18.58Q16.58 18.58 17.45 17.61Q18.33 16.64 18.33 15.50L18.33 15.50Q18.33 14.17 17.64 13.37Q16.96 12.57 15.84 12.06Q14.72 11.55 13.37 11.13Q12.02 10.71 10.65 10.18Q9.28 9.65 8.16 8.79Q7.04 7.94 6.36 6.57Q5.67 5.20 5.67 3.07L5.67 3.07Q5.67 0.60 6.89-1.01Q8.10-2.63 10.10-3.43Q12.09-4.22 14.41-4.22L14.41-4.22Q16.69-4.22 18.61-3.43Q20.53-2.63 21.69-0.94Q22.85 0.75 22.85 3.45L22.85 3.45L22.85 3.91L17.87 3.91L17.87 3.57Q17.87 1.89 16.94 0.93Q16.01-0.04 14.34-0.04L14.34-0.04Q12.59-0.04 11.64 0.74Q10.69 1.51 10.69 2.73L10.69 2.73Q10.69 3.87 11.37 4.55Q12.06 5.24 13.18 5.69Q14.30 6.15 15.67 6.55Q17.03 6.95 18.38 7.48Q19.73 8.01 20.85 8.87Q21.97 9.72 22.66 11.07Q23.34 12.42 23.34 14.47L23.34 14.47Q23.34 17.47 22.16 19.28Q20.99 21.08 18.91 21.92Q16.84 22.76 14.15 22.76ZM3.73 22.76L3.73 22.76Q0.01 22.76-1.99 20.63Q-3.98 18.50-3.98 14.93L-3.98 14.93L-3.98 14.24L0.77 14.24L0.77 15.04Q0.77 16.90 1.51 17.91Q2.25 18.92 3.66 18.92L3.66 18.92Q4.95 18.92 5.73 17.99Q6.51 17.06 6.51 15.08L6.51 15.08Q6.51 13.45 6.07 12.55Q5.63 11.66 4.93 11.32Q4.23 10.98 3.39 10.98L3.39 10.98L2.14 10.98L2.14 7.14L3.47 7.14Q4.57 7.14 5.31 6.13Q6.05 5.12 6.05 3.11L6.05 3.11Q6.05 1.29 5.41 0.45Q4.76-0.39 3.66-0.39L3.66-0.39Q2.48-0.39 1.85 0.53Q1.23 1.44 1.23 3.26L1.23 3.26L1.23 3.98L-3.52 3.98L-3.52 2.92Q-3.52 0.75-2.61-0.86Q-1.70-2.48-0.09-3.35Q1.53-4.22 3.62-4.22L3.62-4.22Q6.85-4.22 8.83-2.40Q10.80-0.58 10.80 2.92L10.80 2.92Q10.80 5.24 9.83 6.59Q8.86 7.94 7.42 8.77L7.42 8.77L7.42 8.92Q9.09 9.53 10.17 11.13Q11.26 12.72 11.26 15.31L11.26 15.31Q11.26 17.63 10.29 19.30Q9.32 20.97 7.63 21.86Q5.94 22.76 3.73 22.76Z"/></g>
                
            </svg>
        